<svg width="24" height="24" viewBox="0 0 24 24" fill="none" xmlns="http://www.w3.org/2000/svg">
<path d="M7.6 9.8V17.1333M16.4 17.1333V13.4667C16.4 12.6887 16.091 11.9426 15.5408 11.3925C14.9907 10.8424 14.2446 10.5333 13.4667 10.5333C12.6887 10.5333 11.9426 10.8424 11.3925 11.3925C10.8424 11.9426 10.5333 12.6887 10.5333 13.4667V17.1333V9.8M6.86667 7.6H8.33334M3.2 1.73334H20.8C21.189 1.73334 21.562 1.88786 21.8371 2.16291C22.1121 2.43797 22.2667 2.81102 22.2667 3.2V20.8C22.2667 21.189 22.1121 21.562 21.8371 21.8371C21.562 22.1121 21.189 22.2667 20.8 22.2667H3.2C2.81102 22.2667 2.43797 22.1121 2.16291 21.8371C1.88786 21.562 1.73334 21.189 1.73334 20.8V3.2C1.73334 2.81102 1.88786 2.43797 2.16291 2.16291C2.43797 1.88786 2.81102 1.73334 3.2 1.73334Z" stroke="black" stroke-width="2"/>
</svg>
